<svg xmlns="http://www.w3.org/2000/svg" xmlns:xlink="http://www.w3.org/1999/xlink" width="500" zoomAndPan="magnify" viewBox="0 0 375 374.999991" height="500" preserveAspectRatio="xMidYMid meet" version="1.0"><defs><clipPath id="630a7744f8"><path d="M 98 70 L 260 70 L 260 223 L 98 223 Z M 98 70 " clip-rule="nonzero"/></clipPath><clipPath id="e9720ce301"><path d="M 84.417969 94.878906 L 235.324219 65.445312 L 264.761719 216.351562 L 113.855469 245.785156 Z M 84.417969 94.878906 " clip-rule="nonzero"/></clipPath><clipPath id="8e3f1781f4"><path d="M 84.417969 94.878906 L 235.324219 65.445312 L 264.761719 216.351562 L 113.855469 245.785156 Z M 84.417969 94.878906 " clip-rule="nonzero"/></clipPath></defs><g clip-path="url(#630a7744f8)"><g clip-path="url(#e9720ce301)"><g clip-path="url(#8e3f1781f4)"><path fill="#ffffff" d="M 218.195312 126.113281 C 233.421875 123.144531 243.394531 108.339844 240.425781 93.113281 C 237.453125 77.886719 222.648438 67.917969 207.425781 70.886719 C 192.203125 73.855469 182.226562 88.660156 185.199219 103.886719 C 185.714844 106.539062 186.613281 109.023438 187.789062 111.316406 L 145.472656 143.90625 C 139.007812 138.042969 130.179688 135.464844 121.335938 137.191406 C 106.109375 140.160156 96.140625 154.964844 99.109375 170.1875 C 102.078125 185.414062 116.882812 195.386719 132.109375 192.417969 C 140.964844 190.6875 148.1875 184.96875 151.960938 177.125 L 203.414062 191.421875 C 203.183594 193.988281 203.285156 196.625 203.804688 199.277344 C 206.773438 214.503906 221.582031 224.476562 236.804688 221.507812 C 252.027344 218.535156 262 203.734375 259.03125 188.507812 C 256.0625 173.28125 241.253906 163.308594 226.03125 166.277344 C 217.046875 168.03125 209.921875 173.917969 206.175781 181.570312 L 154.699219 167.265625 C 154.9375 164.664062 154.847656 162.042969 154.335938 159.417969 C 153.824219 156.789062 152.917969 154.320312 151.726562 152.003906 L 194.050781 119.40625 C 200.394531 125.089844 209.214844 127.867188 218.195312 126.113281 Z M 227.988281 176.320312 C 237.679688 174.429688 247.101562 180.777344 248.988281 190.464844 C 250.878906 200.152344 244.535156 209.574219 234.84375 211.464844 C 225.15625 213.355469 215.734375 207.007812 213.84375 197.320312 C 211.957031 187.632812 218.300781 178.210938 227.988281 176.320312 Z M 130.148438 182.375 C 120.460938 184.265625 111.039062 177.917969 109.152344 168.230469 C 107.261719 158.542969 113.605469 149.121094 123.296875 147.230469 C 130.015625 145.921875 136.75 148.46875 140.90625 153.925781 C 142.617188 156.117188 143.757812 158.621094 144.292969 161.375 C 144.832031 164.128906 144.71875 166.878906 143.9375 169.613281 C 142.152344 176.175781 136.871094 181.0625 130.148438 182.375 Z M 209.382812 80.929688 C 219.070312 79.039062 228.492188 85.386719 230.382812 95.074219 C 232.273438 104.761719 225.925781 114.183594 216.238281 116.074219 C 206.550781 117.960938 197.128906 111.617188 195.238281 101.929688 C 193.347656 92.238281 199.695312 82.820312 209.382812 80.929688 Z M 209.382812 80.929688 " fill-opacity="1" fill-rule="nonzero"/></g></g></g><path stroke-linecap="round" transform="matrix(0.75, 0.000000000000001256, -0.000000000000001256, 0.75, 174.419743, 271.717247)" fill="none" stroke-linejoin="miter" d="M 7.997634 8.002005 L 25.935135 8.002005 " stroke="#ffffff" stroke-width="16" stroke-opacity="1" stroke-miterlimit="4"/><path stroke-linecap="round" transform="matrix(-0.700867, 0.266994, -0.266994, -0.700867, 372.281082, 242.693259)" fill="none" stroke-linejoin="miter" d="M 11.502369 37.997974 C 48.080061 -3.111266 124.213472 -1.970061 239.887307 41.432483 " stroke="#ffffff" stroke-width="16" stroke-opacity="1" stroke-miterlimit="4"/><path stroke-linecap="round" transform="matrix(0.17171, 0.730079, -0.730079, 0.17171, 63.05978, 171.20145)" fill="none" stroke-linejoin="miter" d="M 8.251019 11.540907 C 11.913517 104.413926 37.279297 104.098354 84.357006 10.580175 " stroke="#ffffff" stroke-width="16" stroke-opacity="1" stroke-miterlimit="4"/><path stroke-linecap="round" transform="matrix(-0.17841, 0.728471, -0.728471, -0.17841, 376.877178, 186.535111)" fill="none" stroke-linejoin="miter" d="M 8.079494 74.457896 C 9.716333 -14.516804 35.115433 -14.152466 84.279273 75.561028 " stroke="#ffffff" stroke-width="16" stroke-opacity="1" stroke-miterlimit="4"/><path stroke-linecap="round" transform="matrix(-0.75, 0, 0, -0.75, 302.021001, 251.08674)" fill="none" stroke-linejoin="miter" d="M 9.246751 18.938572 C 104.184258 4.350029 199.121764 4.355237 294.064479 18.954197 " stroke="#ffffff" stroke-width="16" stroke-opacity="1" stroke-miterlimit="4"/><path stroke-linecap="butt" transform="matrix(0.7374, 0.136897, -0.136897, 0.7374, 69.795996, 228.578877)" fill="none" stroke-linejoin="miter" d="M -0.00246944 7.998402 L 19.137012 7.999701 " stroke="#ffffff" stroke-width="16" stroke-opacity="1" stroke-miterlimit="4"/><path stroke-linecap="butt" transform="matrix(0.732988, -0.158833, 0.158833, 0.732988, 294.618765, 230.939678)" fill="none" stroke-linejoin="miter" d="M 0.00124805 8.001775 L 17.416944 8.002539 " stroke="#ffffff" stroke-width="16" stroke-opacity="1" stroke-miterlimit="4"/><path stroke-linecap="round" transform="matrix(0.701349, 0.265724, -0.265724, 0.701349, 15.078088, 206.55271)" fill="none" stroke-linejoin="miter" d="M 11.549516 13.416364 C 51.744431 54.251314 128.16678 53.211706 240.812873 10.287799 " stroke="#ffffff" stroke-width="16" stroke-opacity="1" stroke-miterlimit="4"/></svg>